<?xml version="1.0" standalone="no"?>
<!DOCTYPE svg PUBLIC "-//W3C//DTD SVG 20010904//EN"
 "http://www.w3.org/TR/2001/REC-SVG-20010904/DTD/svg10.dtd">
<svg version="1.0" xmlns="http://www.w3.org/2000/svg"
 width="500.000000pt" height="500.000000pt" viewBox="0 0 500.000000 500.000000"
 preserveAspectRatio="xMidYMid meet">

<g transform="translate(0.000000,500.000000) scale(0.100000,-0.100000)"
fill="#000000" stroke="none">
<path d="M1643 3299 c-65 -19 -106 -103 -84 -172 33 -100 159 -122 230 -41 26
29 31 43 31 84 0 41 -5 55 -31 84 -25 29 -85 59 -109 55 -3 0 -19 -5 -37 -10z"/>
<path d="M2050 3289 c-69 -10 -136 -21 -150 -25 l-25 -6 27 -14 c15 -8 32 -23
38 -34 6 -12 10 -205 10 -547 l0 -529 -28 -27 c-36 -34 -44 -34 -76 4 l-26 31
0 388 c0 302 -3 390 -13 398 -9 8 -54 5 -157 -9 -169 -24 -184 -28 -154 -39
53 -21 54 -28 54 -398 0 -215 -4 -350 -10 -362 -6 -11 -23 -26 -38 -34 -24
-14 10 -15 336 -16 l364 0 10 28 11 29 60 -31 c51 -26 71 -31 131 -31 328 2
457 505 199 776 -96 101 -233 138 -350 95 l-43 -15 0 179 c0 149 -3 181 -16
194 -8 9 -18 15 -22 15 -4 -1 -63 -10 -132 -20z m321 -415 c88 -86 133 -262
109 -433 -27 -195 -106 -307 -213 -299 l-42 3 -3 379 c-2 297 1 382 10 388 7
5 33 7 56 5 34 -4 53 -13 83 -43z"/>
<path d="M3225 2956 c-22 -7 -59 -22 -82 -34 -50 -26 -53 -26 -53 -8 0 24 -25
25 -167 4 -171 -25 -175 -26 -144 -42 49 -27 50 -38 51 -400 l0 -339 -36 -33
-35 -34 208 0 c190 1 206 2 181 16 -57 30 -58 40 -58 437 l0 365 29 12 c53 22
65 12 71 -56 6 -71 29 -110 75 -130 47 -19 84 -18 122 6 90 55 93 168 4 227
-39 26 -101 29 -166 9z"/>
<path d="M1274 2946 c-97 -44 -103 -187 -11 -241 24 -14 42 -16 98 -11 66 6
69 5 86 -20 16 -25 16 -31 -5 -123 -28 -127 -95 -259 -173 -345 -99 -107 -210
-146 -264 -91 -36 35 -35 42 40 144 l25 34 0 318 c0 182 -4 320 -9 323 -9 6
-278 -30 -311 -41 -11 -3 -8 -8 11 -18 15 -8 30 -22 35 -32 5 -10 11 -155 14
-323 5 -290 6 -307 27 -346 60 -112 179 -142 307 -78 189 94 326 362 326 633
0 119 -18 176 -64 206 -35 23 -95 28 -132 11z"/>
<path d="M3818 2943 c12 -2 30 -2 40 0 9 3 -1 5 -23 4 -22 0 -30 -2 -17 -4z"/>
<path d="M3952 2939 c155 -23 252 -131 189 -211 -30 -37 -119 -80 -301 -143
-91 -31 -186 -68 -212 -81 -96 -49 -157 -137 -158 -226 0 -59 10 -86 51 -132
51 -59 101 -80 189 -80 64 0 85 4 143 31 59 28 67 30 67 14 0 -9 6 -25 13 -34
11 -16 22 -16 170 5 86 12 157 25 157 29 0 4 -9 11 -20 14 -46 15 -50 45 -50
356 0 277 -1 295 -21 336 -34 71 -149 135 -237 132 -30 -1 -27 -3 20 -10z
m-32 -568 l0 -229 -28 -7 c-133 -29 -211 211 -115 356 24 36 112 107 136 108
4 1 7 -102 7 -228z"/>
<path d="M3740 2931 c-39 -12 -91 -41 -132 -73 -75 -59 -104 -145 -72 -213 59
-126 254 -85 254 54 0 36 -7 57 -36 98 -45 66 -44 101 6 125 36 18 25 22 -20
9z"/>
<path d="M1630 1850 l0 -70 55 0 c42 0 55 3 55 15 0 11 -11 15 -40 15 -46 0
-58 26 -15 32 14 2 26 8 26 13 0 6 -12 11 -26 13 -43 6 -31 32 15 32 22 0 40
5 40 10 0 6 -25 10 -55 10 l-55 0 0 -70z"/>
<path d="M1812 1908 c-15 -15 -15 -45 0 -54 7 -4 28 -10 48 -14 51 -8 43 -24
-13 -28 -60 -4 -59 -26 1 -30 31 -2 46 2 62 18 29 29 12 56 -40 65 -22 4 -40
10 -40 15 0 13 30 20 56 14 18 -5 24 -2 24 10 0 12 -10 16 -43 16 -24 0 -48
-5 -55 -12z"/>
<path d="M1980 1850 c0 -56 3 -70 15 -70 8 0 15 9 15 20 0 15 7 20 28 20 35 0
72 26 72 50 0 28 -39 50 -87 50 l-43 0 0 -70z m86 36 c22 -17 13 -31 -28 -41
-26 -7 -28 -5 -28 24 0 35 22 42 56 17z"/>
<path d="M2184 1863 c-27 -83 -27 -83 -10 -83 9 0 16 7 16 15 0 10 11 15 35
15 24 0 35 -5 35 -15 0 -8 7 -15 16 -15 9 0 14 6 11 13 -2 6 -13 38 -23 70
-14 46 -22 57 -39 57 -17 0 -25 -11 -41 -57z m56 -10 c0 -7 -7 -13 -15 -13
-16 0 -19 9 -9 35 5 13 8 14 15 3 5 -7 9 -19 9 -25z"/>
<path d="M2361 1894 c-28 -35 -26 -59 4 -90 20 -19 34 -24 62 -22 52 4 56 28
5 28 -47 0 -67 19 -58 55 6 24 14 28 65 29 13 1 26 7 28 14 3 8 -9 12 -40 12
-37 0 -49 -5 -66 -26z"/>
<path d="M2530 1850 c0 -56 3 -70 15 -70 12 0 15 14 15 70 0 56 -3 70 -15 70
-12 0 -15 -14 -15 -70z"/>
<path d="M2640 1900 c-45 -45 -11 -120 55 -120 46 0 75 29 75 74 0 25 -7 39
-22 50 -31 22 -84 20 -108 -4z m90 -20 c23 -23 24 -30 7 -54 -9 -12 -23 -17
-47 -14 -31 3 -35 6 -38 36 -3 26 1 34 20 41 33 14 36 13 58 -9z"/>
<path d="M2942 1904 c-16 -11 -22 -25 -22 -54 0 -29 6 -43 22 -54 23 -16 64
-21 92 -10 26 10 7 24 -33 24 -40 0 -61 14 -61 42 0 26 43 50 74 42 20 -5 26
-2 26 10 0 21 -67 22 -98 0z"/>
<path d="M3110 1850 c0 -40 4 -70 10 -70 6 0 10 9 10 20 0 13 7 20 20 20 10 0
24 -9 30 -20 6 -11 17 -20 25 -20 18 0 19 12 4 27 -9 9 -8 16 5 28 38 39 4 85
-62 85 l-42 0 0 -70z m68 44 c30 -9 29 -40 -3 -48 -31 -8 -45 -1 -45 23 0 30
10 35 48 25z"/>
<path d="M3290 1850 l0 -70 55 0 c42 0 55 3 55 15 0 11 -12 15 -45 15 -33 0
-45 4 -45 15 0 10 10 15 30 15 20 0 30 5 30 15 0 10 -10 15 -31 15 -47 0 -30
24 19 28 62 5 51 22 -13 22 l-55 0 0 -70z"/>
<path d="M3493 1903 c-3 -10 -14 -40 -25 -66 -22 -58 -22 -57 -3 -57 8 0 15 7
15 15 0 22 59 20 76 -2 24 -34 26 -3 3 62 -17 48 -27 65 -41 65 -10 0 -21 -8
-25 -17z m40 -43 c4 -15 0 -20 -15 -20 -14 0 -18 5 -14 16 3 9 6 20 6 25 0 17
17 1 23 -21z"/>
<path d="M3640 1910 c0 -5 11 -10 25 -10 24 0 25 -3 25 -60 0 -47 3 -60 15
-60 12 0 15 13 15 60 0 57 1 60 25 60 14 0 25 5 25 10 0 6 -28 10 -65 10 -37
0 -65 -4 -65 -10z"/>
<path d="M3830 1850 c0 -56 3 -70 15 -70 12 0 15 14 15 70 0 56 -3 70 -15 70
-12 0 -15 -14 -15 -70z"/>
<path d="M3930 1868 c29 -84 31 -88 50 -88 12 0 24 19 42 71 21 58 23 69 10
67 -8 -2 -22 -24 -31 -50 -9 -26 -19 -49 -22 -52 -3 -3 -13 19 -23 49 -10 32
-23 55 -31 55 -11 0 -11 -10 5 -52z"/>
<path d="M4122 1904 c-16 -11 -22 -25 -22 -54 0 -46 26 -70 75 -70 63 0 98 77
55 120 -24 24 -77 26 -108 4z m73 -14 c22 -8 26 -15 23 -42 -3 -30 -6 -33 -40
-36 -33 -3 -40 0 -50 24 -11 23 -10 28 11 45 27 22 23 22 56 9z"/>
</g>
</svg>
